<svg width="60" height="60" viewBox="0 0 26 25" fill="none" xmlns="http://www.w3.org/2000/svg"><path d="M9.659 19.286h6.724a3.428 3.428 0 003.424-3.424V9.138a3.428 3.428 0 00-3.424-3.424H9.66a3.428 3.428 0 00-3.424 3.424v6.724a3.428 3.428 0 003.424 3.424zM7.71 9.138a1.95 1.95 0 011.95-1.949h6.724a1.95 1.95 0 011.948 1.949v6.724a1.95 1.95 0 01-1.948 1.949H9.66a1.95 1.95 0 01-1.949-1.949V9.138z" fill="#daa520"/><path d="M13.02 15.996a3.502 3.502 0 003.497-3.496 3.502 3.502 0 00-3.496-3.496A3.502 3.502 0 009.525 12.5a3.502 3.502 0 003.496 3.496zm0-5.517c1.114 0 2.022.908 2.022 2.021s-.908 2.02-2.021 2.02A2.024 2.024 0 0111 12.5c0-1.113.907-2.02 2.02-2.02zm3.608-.751c.457 0 .83-.373.83-.83a.831.831 0 00-.83-.829.831.831 0 00-.83.83c0 .456.374.829.83.829z" fill="#daa520"/></svg>