<svg width="60" height="60" viewBox="0 0 25 25" fill="none" xmlns="http://www.w3.org/2000/svg"><path d="M7.732 8.816c.439 1.114.995 2.165 1.727 3.108.097.125.22.237.349.328.188.133.366.086.443-.136a4.07 4.07 0 00.16-.948 21.037 21.037 0 00-.036-1.694c-.021-.408-.163-.767-.746-.875-.18-.033-.198-.186-.082-.338.241-.317.577-.368.942-.388.59-.033 1.183-.006 1.774 0 .24.002.483.022.72.076.31.069.475.292.526.603.027.16.04.325.036.487-.015.696-.048 1.393-.055 2.09a3.74 3.74 0 00.073.819c.08.37.325.464.576.196.319-.34.6-.724.864-1.113.479-.707.837-1.484 1.145-2.285.16-.413.282-.503.714-.504a435.87 435.87 0 012.436 0c.144.001.295.015.431.06.22.072.308.257.257.492-.121.55-.41 1.018-.72 1.468-.497.721-1.018 1.426-1.526 2.139-.065.09-.122.188-.175.286-.19.354-.178.552.1.846.442.469.914.907 1.342 1.389.31.35.598.73.845 1.13.311.506.119.982-.463 1.067-.366.053-2.155 0-2.247 0a1.725 1.725 0 01-1.242-.51c-.377-.374-.72-.784-1.083-1.174a3.057 3.057 0 00-.351-.329c-.297-.232-.588-.18-.726.178-.119.307-.221 1.115-.226 1.184-.025.36-.248.59-.64.613-1.135.063-2.234-.067-3.258-.631-.868-.478-1.561-1.154-2.161-1.942-.954-1.252-1.707-2.628-2.395-4.045a75.341 75.341 0 01-.75-1.67c-.063-.24-.005-.47.193-.55.124-.05 2.42 0 2.459.002.366.02.616.18.77.57z" fill="#daa520"/></svg>