<svg width="60" height="60" viewBox="0 0 26 25" fill="none" xmlns="http://www.w3.org/2000/svg">
              <path
                d="M9.65869 19.2857H16.3832C18.2703 19.2857 19.8066 17.7493 19.8066 15.8622V9.13776C19.8066 7.25067 18.2703 5.71428 16.3832 5.71428H9.65869C7.77161 5.71428 6.23522 7.25067 6.23522 9.13776V15.8622C6.23522 17.7493 7.77161 19.2857 9.65869 19.2857ZM7.71038 9.13776C7.71038 8.0634 8.58434 7.18944 9.65869 7.18944H16.3832C17.4575 7.18944 18.3315 8.0634 18.3315 9.13776V15.8622C18.3315 16.9366 17.4575 17.8106 16.3832 17.8106H9.65869C8.58434 17.8106 7.71038 16.9366 7.71038 15.8622V9.13776Z"
                fill="#daa520" />
              <path
                d="M13.0209 15.9958C14.947 15.9958 16.5168 14.4261 16.5168 12.5C16.5168 10.5739 14.947 9.00416 13.0209 9.00416C11.0949 9.00416 9.52509 10.5739 9.52509 12.5C9.52509 14.4261 11.0949 15.9958 13.0209 15.9958ZM13.0209 10.4793C14.1343 10.4793 15.0416 11.3867 15.0416 12.5C15.0416 13.6133 14.1343 14.5207 13.0209 14.5207C11.9076 14.5207 11.0002 13.6133 11.0002 12.5C11.0002 11.3867 11.9076 10.4793 13.0209 10.4793Z"
                fill="#daa520" />
              <path
                d="M16.6281 9.72782C17.0846 9.72782 17.4575 9.35486 17.4575 8.89839C17.4575 8.44193 17.0846 8.06897 16.6281 8.06897C16.1716 8.06897 15.7987 8.44193 15.7987 8.89839C15.7987 9.35486 16.1716 9.72782 16.6281 9.72782Z"
                fill="#daa520" />
            </svg>
