<svg width="60" height="60" viewBox="0 0 25 25" fill="none" xmlns="http://www.w3.org/2000/svg">
            <path
                d="M7.73226 8.81565C8.17097 9.93002 8.72695 10.9807 9.45924 11.9239C9.55636 12.0494 9.67879 12.161 9.80777 12.2518C9.99615 12.3849 10.1739 12.3382 10.2505 12.1165C10.3315 11.8839 10.4058 11.4125 10.4103 11.1682C10.4224 10.53 10.4085 10.1117 10.3751 9.47423C10.3535 9.06594 10.2124 8.70745 9.62854 8.59924C9.44823 8.56569 9.43148 8.41303 9.54732 8.26074C9.78849 7.94368 10.1244 7.89315 10.4888 7.87316C11.0792 7.84035 11.6718 7.86713 12.263 7.87316C12.5038 7.87543 12.7461 7.89539 12.9832 7.94856C13.2925 8.01793 13.4582 8.24112 13.5091 8.55173C13.5355 8.71195 13.5491 8.87668 13.5454 9.0388C13.53 9.73547 13.4974 10.4318 13.4897 11.1281C13.4864 11.4014 13.5058 11.6815 13.5626 11.9476C13.6422 12.3186 13.8877 12.4117 14.1388 12.1437C14.4576 11.8033 14.7388 11.4202 15.0026 11.0312C15.482 10.3236 15.8401 9.54702 16.1483 8.74633C16.3077 8.33317 16.4298 8.24343 16.8619 8.24231C17.674 8.24041 18.4862 8.23967 19.2984 8.24231C19.4424 8.24306 19.5931 8.25702 19.729 8.30152C19.9497 8.37391 20.0373 8.559 19.9856 8.79388C19.865 9.34429 19.5758 9.81211 19.2661 10.2619C18.7692 10.9834 18.2484 11.6876 17.7397 12.4009C17.6748 12.4917 17.6177 12.5886 17.5645 12.687C17.3742 13.0406 17.3875 13.2389 17.6649 13.5333C18.1065 14.0019 18.5793 14.4403 19.007 14.9217C19.3178 15.2719 19.6055 15.6519 19.8518 16.0519C20.1633 16.5578 19.9709 17.0343 19.3889 17.1191C19.0228 17.1723 17.2343 17.1195 17.1419 17.1191C16.6611 17.1169 16.2396 16.9454 15.9002 16.6095C15.5227 16.2355 15.1796 15.8253 14.8172 15.4351C14.708 15.3175 14.5914 15.2048 14.4657 15.1064C14.1692 14.8738 13.8782 14.9254 13.7397 15.2836C13.6213 15.5912 13.519 16.3991 13.5142 16.4681C13.4893 16.8288 13.2661 17.0588 12.8732 17.081C11.7389 17.1444 10.6397 17.0143 9.61577 16.45C8.74788 15.972 8.05484 15.296 7.45451 14.5078C6.50087 13.2557 5.74762 11.8795 5.05992 10.4628C5.02478 10.3904 4.32824 8.86581 4.30952 8.7938C4.24731 8.55268 4.30535 8.32234 4.50341 8.24306C4.62688 8.19364 6.92338 8.24289 6.96158 8.245C7.32802 8.26541 7.5779 8.42443 7.73226 8.81565Z"
                fill="#daa520" />
            </svg>
